<?xml version="1.0"?>
<svg xmlns="http://www.w3.org/2000/svg" id="Outline" viewBox="0 0 512 512" width="512" height="512"><path d="M478.656,188.438l8.724-13.086a24.065,24.065,0,0,0-3-30.284l-21.39-21.389-2.709-8.129A39.925,39.925,0,0,0,437.19,91.06l-23.2-9.281c-13.581-29.418-33.718-41.456-48.457-46.368-16.695-5.566-30.274-3.4-30.845-3.3a8,8,0,0,0-6.68,8.168c1.3,37.68,31.534,61.957,41.014,68.662,2.1,8.992,7.475,39.432-9.388,62.168C345.411,190.279,318.62,200,280,200c-31.153,0-57.637,7.792-78.714,23.161-17.305,12.618-30.974,30.337-40.629,52.664C149.6,301.384,144,332.4,144,367.933c-.122,1.221-2.894,13.145-61.564,55.211-31.111,22.308-62.366,41.877-62.678,42.072A8,8,0,0,0,24,480c.141,0,.282,0,.424-.011,119.817-6.306,163.065-47.074,177.078-66.719,11.381,10.668,23.8,16.063,37.02,16.063,13.461,0,25.085-5.714,33.481-11.594V456a24.028,24.028,0,0,0,24,24h80a8,8,0,0,0,8-8v-7.015a39.942,39.942,0,0,0-30.3-38.806L320,417.754V365.947c19.261-6.74,32.49-20.862,39.934-30.96l33.282,53.253a8,8,0,0,0,8.724,3.521c5.531-1.383,16.115-6.678,20.7-17.76,4.738-11.44,2.119-25.61-7.785-42.117-20.614-34.357-8.866-54.371-8.161-55.51,24.265-36.448,22.712-76.636,19.711-97.08l43.392,12.4A8,8,0,0,0,478.656,188.438ZM418.2,160.308a8.005,8.005,0,0,0-9.894,9.877c.149.526,14.513,53.167-14.96,97.377-.769,1.152-18.506,28.717,7.8,72.554,7,11.674,9.346,21.231,6.773,27.637a13.709,13.709,0,0,1-4.891,5.989L366.784,315.76c-.018-.029-.04-.053-.059-.082s-.044-.078-.069-.116c-13.144-19.717.3-47.584.506-48a8,8,0,0,0-14.317-7.141c-.7,1.4-16.084,32.868-2.1,59.6-4.321,6.9-15.26,21.913-32.365,29.365-3.015-14.5-11.364-41.483-33.324-57.881-16.734-12.494-37.8-16.312-62.627-11.348a8,8,0,0,0,3.138,15.69c20.143-4.029,36.917-1.194,49.848,8.429,23.62,17.576,28.18,52.613,28.583,56.151V424a8,8,0,0,0,6.06,7.761l39.76,9.941A23.96,23.96,0,0,1,367.98,464H296a8.009,8.009,0,0,1-8-8V400a8.006,8.006,0,0,0-14.132-5.138c-.156.185-15.789,18.471-35.349,18.471h-.085c-11.246-.03-22.109-6.239-32.288-18.455a7.965,7.965,0,0,0-13.607,2.235c-.059.146-6.111,14.8-29.518,30.263C132.55,447.505,91.453,457,55.182,461.324,66.216,454,79.479,444.977,92.669,435.5c18.823-13.529,33.864-25.37,44.7-35.193C153.021,386.121,160,376.158,160,368c0-33.406,5.162-62.282,15.343-85.825C194.331,238.265,229.543,216,280,216c44.037,0,75.181-11.936,92.565-35.475,24.671-33.4,11.648-77.037,11.081-78.878a8.04,8.04,0,0,0-3.41-4.433c-.323-.2-29.88-19.078-35.393-49.6,13.088.566,39.944,6.529,55.8,43.534a8,8,0,0,0,4.383,4.277l26.22,10.488A23.958,23.958,0,0,1,445.1,120.61l3.306,9.92a8.018,8.018,0,0,0,1.933,3.127l22.725,22.725a8.021,8.021,0,0,1,1,10.095l-5.484,8.227Z"/><circle cx="424" cy="128" r="8"/></svg>
